<?xml version="1.0" standalone="no"?>
<!DOCTYPE svg PUBLIC "-//W3C//DTD SVG 20010904//EN"
 "http://www.w3.org/TR/2001/REC-SVG-20010904/DTD/svg10.dtd">
<svg version="1.0" xmlns="http://www.w3.org/2000/svg"
 width="1280.000000pt" height="1280.000000pt" viewBox="0 0 1280.000000 1280.000000"
 preserveAspectRatio="xMidYMid meet">
<metadata>
Created by potrace 1.15, written by Peter Selinger 2001-2017
</metadata>
<g transform="translate(0.000000,1280.000000) scale(0.100000,-0.100000)"
fill="#000000" stroke="none">
<path d="M3695 12794 c-366 -21 -570 -48 -805 -105 -679 -165 -1153 -380
-1529 -694 -229 -191 -411 -434 -548 -730 -77 -166 -102 -257 -118 -427 -27
-280 -106 -447 -343 -720 -170 -196 -255 -333 -306 -495 -62 -197 -58 -464 8
-592 60 -115 276 -252 467 -296 246 -55 520 -23 1071 129 392 108 652 160 944
191 177 19 499 21 604 5 83 -13 331 -68 338 -75 2 -2 8 -62 13 -132 42 -611
52 -707 95 -912 94 -459 263 -697 524 -741 165 -28 316 54 493 269 36 43 127
168 202 277 193 280 288 395 314 379 21 -12 53 -125 81 -287 48 -270 100 -430
211 -652 294 -588 841 -1042 1401 -1163 62 -14 127 -18 263 -18 158 0 189 3
250 22 129 41 211 114 256 231 17 44 23 84 27 172 5 147 -16 252 -103 520 -98
304 -103 360 -29 360 93 0 443 -218 721 -448 344 -285 686 -668 950 -1062 260
-390 491 -892 674 -1470 130 -408 171 -657 139 -831 -23 -124 -51 -144 -250
-184 -170 -35 -287 -73 -418 -135 -412 -197 -712 -544 -817 -946 -67 -256 -49
-501 47 -641 58 -85 137 -126 243 -125 90 0 174 28 290 96 153 90 176 93 308
37 120 -52 200 -65 345 -57 382 19 375 19 442 2 35 -9 91 -32 125 -50 88 -49
219 -91 426 -136 335 -72 500 -134 683 -255 239 -159 364 -348 432 -653 56
-246 125 -360 254 -421 47 -22 68 -26 150 -26 116 1 173 23 240 94 84 89 205
333 260 525 109 378 103 802 -17 1164 -93 281 -289 571 -613 906 -220 227
-426 396 -777 636 -101 68 -183 130 -183 138 0 8 15 121 34 251 92 632 122
1101 113 1776 -9 647 -55 1168 -157 1779 -133 793 -324 1467 -620 2185 -74
182 -112 333 -114 456 -2 203 29 227 324 260 259 29 420 59 481 91 71 36 90
180 43 340 -85 296 -341 658 -614 869 -285 220 -857 469 -1272 554 -190 39
-313 46 -813 46 -393 -1 -534 -5 -779 -23 l-298 -22 -452 170 c-453 169 -742
265 -1086 360 -464 128 -755 178 -1250 216 -183 14 -843 26 -975 18z m920
-344 c528 -21 906 -67 1255 -151 1303 -315 2407 -1008 3224 -2027 372 -465
703 -1026 900 -1527 111 -282 156 -367 156 -298 0 89 -149 561 -264 837 -298
712 -729 1373 -1203 1843 -145 144 -262 242 -453 379 -144 103 -250 198 -250
225 0 30 61 41 270 46 482 13 1341 -87 1540 -179 l45 -21 -50 -9 c-30 -5 -206
-4 -450 3 -440 13 -741 9 -792 -11 -18 -6 -33 -14 -33 -16 0 -39 161 -197 278
-274 140 -92 241 -109 642 -110 540 -1 758 -34 994 -152 253 -126 466 -325
454 -424 -12 -102 -281 -110 -641 -18 -198 50 -310 43 -378 -25 -45 -45 -62
-100 -61 -201 1 -155 43 -301 219 -765 197 -519 415 -1128 522 -1459 41 -126
114 -411 207 -815 172 -747 244 -1366 244 -2103 0 -470 -25 -797 -91 -1198
-49 -301 -107 -523 -233 -899 -53 -157 -94 -286 -92 -288 2 -2 84 -24 182 -48
571 -139 935 -332 1221 -648 83 -93 182 -240 231 -348 117 -251 192 -613 192
-918 0 -175 -17 -283 -64 -416 -67 -187 -142 -233 -195 -121 -10 23 -36 86
-56 141 -147 398 -407 691 -784 884 -112 57 -237 105 -437 167 -173 54 -279
97 -382 158 -152 90 -227 177 -239 277 -7 69 -18 89 -47 89 -34 0 -89 -40
-196 -144 -137 -133 -153 -141 -275 -141 -55 0 -179 10 -275 22 -96 13 -266
27 -376 32 -310 15 -320 23 -318 271 1 103 7 178 18 223 61 258 286 458 656
581 165 55 330 86 645 121 132 15 241 28 242 29 3 2 -1 52 -33 401 -15 172
-53 442 -80 570 -24 112 -43 181 -90 327 -59 184 -59 247 1 156 76 -114 199
-365 324 -660 35 -82 69 -148 76 -148 30 0 42 197 51 850 9 735 -2 834 -181
1495 -341 1260 -1126 2364 -2385 3354 -215 170 -350 255 -350 222 0 -24 77
-120 248 -309 248 -275 467 -573 605 -823 156 -284 162 -296 136 -273 -13 12
-113 100 -221 196 -260 231 -341 299 -475 399 -239 179 -541 352 -706 404 -90
29 -214 43 -242 28 -19 -11 -14 -16 112 -113 137 -105 148 -252 41 -579 -76
-234 -105 -492 -94 -826 8 -256 21 -356 96 -726 69 -341 79 -453 46 -502 -10
-15 -51 -43 -92 -63 -65 -33 -79 -36 -136 -32 -99 6 -165 43 -284 162 -230
231 -449 657 -662 1291 -75 222 -159 524 -262 940 -169 680 -266 916 -404 987
-36 19 -39 22 -21 29 29 11 107 11 205 -1 112 -13 166 -25 277 -62 127 -41
140 -36 77 27 -63 63 -169 123 -307 175 -337 127 -728 199 -1017 186 -296 -13
-640 -64 -640 -95 0 -5 34 -14 75 -20 172 -25 616 -227 790 -359 49 -37 115
-114 115 -134 0 -22 -139 1 -410 65 -571 137 -746 161 -1100 154 -207 -4 -268
-8 -392 -31 -340 -61 -694 -173 -1228 -391 -549 -223 -660 -262 -889 -305
-158 -31 -324 -26 -396 10 -27 14 -51 30 -52 36 -7 23 74 42 317 74 339 45
617 151 925 354 277 182 585 472 585 549 0 10 -15 34 -34 53 -29 29 -39 34
-63 28 -41 -10 -123 -74 -187 -146 -228 -258 -630 -515 -995 -635 -123 -40
-318 -83 -376 -83 -79 1 -185 74 -247 169 -35 55 -36 106 -7 193 77 223 232
413 444 540 75 45 140 71 247 98 97 25 137 46 145 78 7 29 -12 51 -65 74 -77
34 -94 91 -63 212 67 258 250 532 590 880 209 214 269 282 258 293 -11 10
-126 -38 -208 -87 -152 -92 -320 -252 -451 -432 -73 -99 -115 -170 -187 -319
-61 -126 -99 -177 -122 -164 -35 22 30 273 113 439 264 527 850 917 1683 1121
299 73 524 105 885 124 222 12 705 12 985 1z m475 -2774 c84 -56 189 -150 257
-229 96 -109 160 -275 194 -502 88 -582 266 -1153 530 -1704 106 -221 179
-352 331 -588 76 -119 158 -274 158 -300 0 -22 -44 -15 -91 15 -190 122 -467
401 -605 608 -109 167 -225 424 -299 669 -56 184 -88 328 -165 730 -103 541
-128 654 -181 816 -45 140 -61 176 -178 403 -28 55 -51 105 -51 113 0 24 34
14 100 -31z m-1230 -180 c550 -41 714 -68 879 -148 90 -43 115 -61 190 -136
47 -48 101 -113 120 -145 50 -85 97 -234 121 -382 11 -71 23 -143 26 -158 5
-25 -15 -14 -223 126 -261 177 -372 242 -531 315 -200 92 -407 152 -652 191
-252 40 -347 45 -995 46 -577 1 -715 6 -715 24 0 34 654 257 825 281 87 13
715 3 955 -14z m3685 -1145 c113 -51 431 -282 640 -465 378 -330 745 -745 916
-1033 149 -252 407 -856 463 -1083 26 -104 27 -110 15 -110 -21 0 -166 166
-514 591 -124 150 -474 511 -659 678 -344 311 -603 501 -826 608 -218 105
-215 98 -215 453 0 268 7 322 46 361 24 24 81 25 134 0z"/>
</g>
</svg>
